<svg width="82" height="83" viewBox="0 0 82 83" fill="none" xmlns="http://www.w3.org/2000/svg">
<circle cx="40.7653" cy="41.3079" r="40.7547" fill="#00113C"/>
<path d="M36.0405 28.1606C36.0405 32.93 32.1741 36.7963 27.4048 36.7963C22.6354 36.7963 18.7691 32.93 18.7691 28.1606C18.7691 23.3913 22.6354 19.5249 27.4048 19.5249C32.1741 19.5249 36.0405 23.3913 36.0405 28.1606Z" fill="#8293F0"/>
<path d="M62.7615 28.1606C62.7615 32.93 58.8952 36.7963 54.1258 36.7963C49.3565 36.7963 45.4901 32.93 45.4901 28.1606C45.4901 23.3913 49.3565 19.5249 54.1258 19.5249C58.8952 19.5249 62.7615 23.3913 62.7615 28.1606Z" fill="#8293F0"/>
<path d="M36.0405 54.4552C36.0405 59.2246 32.1741 63.0909 27.4048 63.0909C22.6354 63.0909 18.7691 59.2246 18.7691 54.4552C18.7691 49.6858 22.6354 45.8195 27.4048 45.8195C32.1741 45.8195 36.0405 49.6858 36.0405 54.4552Z" fill="#8293F0"/>
<path d="M62.7615 54.4552C62.7615 59.2246 58.8952 63.0909 54.1258 63.0909C49.3565 63.0909 45.4901 59.2246 45.4901 54.4552C45.4901 49.6858 49.3565 45.8195 54.1258 45.8195C58.8952 45.8195 62.7615 49.6858 62.7615 54.4552Z" fill="#8293F0"/>
</svg>
