<svg width="37" height="37" viewBox="0 0 37 37" fill="none" xmlns="http://www.w3.org/2000/svg">
<path fill-rule="evenodd" clip-rule="evenodd" d="M18.8616 36.1721C28.7688 36.1721 36.8002 28.1407 36.8002 18.2335C36.8002 8.32622 28.7688 0.2948 18.8616 0.2948C8.9543 0.2948 0.922882 8.32622 0.922882 18.2335C0.922882 28.1407 8.9543 36.1721 18.8616 36.1721ZM5.82919 18.6989C5.82919 11.5867 11.6677 5.81439 18.8616 5.81439C26.0554 5.81439 31.8939 11.5867 31.8939 18.6989C31.8939 24.3939 28.1667 29.2127 22.9928 30.9392C22.3282 31.0552 22.1196 30.6429 22.1196 30.295V26.7647C22.1196 25.5664 21.6896 24.7804 21.2204 24.381C24.1266 24.0589 27.1762 22.9766 27.1762 18.0547C27.1762 16.6245 26.681 15.4778 25.8339 14.563C25.9642 14.2409 26.4203 12.9009 25.7035 11.1615C25.7035 11.1615 24.6088 10.8136 22.1196 12.4757C21.0901 12.1922 19.9693 12.0505 18.8616 12.0505C17.7538 12.0505 16.633 12.1922 15.6035 12.4757C13.1143 10.8136 12.0196 11.1615 12.0196 11.1615C11.3028 12.9009 11.7589 14.2409 11.8892 14.563C11.0421 15.4778 10.5469 16.6245 10.5469 18.0547C10.5469 22.9637 13.5834 24.0718 16.4766 24.3939C16.1117 24.716 15.7729 25.2829 15.6556 26.1204C14.9127 26.4297 12.997 27.0095 11.8632 25.051C11.8632 25.051 11.1725 23.8141 9.86922 23.7239C9.86922 23.7239 8.59205 23.6981 9.77799 24.497C9.77799 24.497 10.6251 24.8964 11.2246 26.391C11.2246 26.391 11.9935 28.8906 15.6035 28.1175V30.295C15.6035 30.6429 15.3949 31.0423 14.7433 30.9392C9.56948 29.2256 5.82919 24.3939 5.82919 18.6989Z" fill="#D4F0FA"/>
</svg>
