<svg width="82" height="83" viewBox="0 0 82 83" fill="none" xmlns="http://www.w3.org/2000/svg">
<circle cx="40.7653" cy="41.3079" r="40.7547" fill="#00113C"/>
<path d="M35.4701 26.5736C35.4701 31.9187 31.1371 36.2517 25.792 36.2517C20.447 36.2517 16.1139 31.9187 16.1139 26.5736C16.1139 21.2285 20.447 16.8955 25.792 16.8955C31.1371 16.8955 35.4701 21.2285 35.4701 26.5736Z" fill="white"/>
<path d="M65.4167 26.5736C65.4167 31.9187 61.0837 36.2517 55.7386 36.2517C50.3935 36.2517 46.0605 31.9187 46.0605 26.5736C46.0605 21.2285 50.3935 16.8955 55.7386 16.8955C61.0837 16.8955 65.4167 21.2285 65.4167 26.5736Z" fill="white"/>
<path d="M35.4701 56.0422C35.4701 61.3873 31.1371 65.7203 25.792 65.7203C20.447 65.7203 16.1139 61.3873 16.1139 56.0422C16.1139 50.6971 20.447 46.3641 25.792 46.3641C31.1371 46.3641 35.4701 50.6971 35.4701 56.0422Z" fill="white"/>
<path d="M65.4167 56.0422C65.4167 61.3873 61.0837 65.7203 55.7386 65.7203C50.3935 65.7203 46.0605 61.3873 46.0605 56.0422C46.0605 50.6971 50.3935 46.3641 55.7386 46.3641C61.0837 46.3641 65.4167 50.6971 65.4167 56.0422Z" fill="white"/>
</svg>
