<svg width="38" height="38" viewBox="0 0 38 38" fill="none" xmlns="http://www.w3.org/2000/svg">
<path d="M13.6052 26.8361V14.6248H9.54428V26.8374H13.6039L13.6052 26.8361ZM11.5747 12.9555C12.9896 12.9555 13.8725 12.0166 13.8725 10.8442C13.8464 9.64711 12.9896 8.73556 11.6034 8.73556C10.212 8.73556 9.30564 9.64841 9.30564 10.8442C9.30564 12.0179 10.1872 12.9568 11.5499 12.9568L11.5747 12.9555ZM28.2434 26.8361V19.8345C28.2434 16.0827 26.2403 14.3366 23.5709 14.3366C21.4139 14.3366 20.4489 15.5233 19.9117 16.354V14.6221H15.8521C15.9055 15.7697 15.8521 26.8361 15.8521 26.8361H19.9117V20.0158C19.9117 19.6506 19.9377 19.2855 20.0447 19.0273C20.3368 18.297 21.0058 17.542 22.126 17.542C23.5957 17.542 24.1864 18.6609 24.1864 20.3027V26.8374H28.2447L28.2434 26.8361ZM18.7797 0.658142C28.8628 0.658142 37.0367 8.83076 37.0367 18.9152C37.0367 28.9982 28.8628 37.1722 18.7797 37.1722C8.69533 37.1722 0.522713 28.9982 0.522713 18.9152C0.522713 8.83076 8.69533 0.658142 18.7797 0.658142Z" fill="#D4F0FA"/>
</svg>
