<svg width="37" height="38" viewBox="0 0 37 38" fill="none" xmlns="http://www.w3.org/2000/svg">
<path fill-rule="evenodd" clip-rule="evenodd" d="M18.1615 37.1722C28.1719 37.1722 36.2869 29.0571 36.2869 19.0468C36.2869 9.0364 28.1719 0.921387 18.1615 0.921387C8.15113 0.921387 0.0361176 9.0364 0.0361176 19.0468C0.0361176 29.0571 8.15113 37.1722 18.1615 37.1722ZM24.302 14.7663C25.4504 13.7328 26.4144 12.8697 26.4423 12.8454C26.484 12.8036 25.1616 12.7966 18.1598 12.7966C11.158 12.7966 9.83557 12.8036 9.87733 12.8454C9.90517 12.8697 10.8691 13.7328 12.0175 14.7663C13.166 15.7964 15.0104 17.4529 16.1205 18.4517C17.2271 19.447 18.1459 20.2613 18.1598 20.2613C18.1737 20.2613 19.0924 19.447 20.1991 18.4517C21.3092 17.4529 23.1536 15.7964 24.302 14.7663ZM15.6472 20.2752C15.6402 20.2648 14.0534 18.838 12.1185 17.1084C10.1871 15.3788 8.5758 13.9416 8.54448 13.9137C8.4888 13.8685 8.48532 14.2304 8.48532 19.6488C8.48532 22.8261 8.49576 25.4291 8.5062 25.4291C8.54448 25.4291 15.6542 20.2996 15.6472 20.2752ZM20.7106 20.2857C20.7211 20.3274 27.7995 25.4396 27.8203 25.4222C27.8273 25.4117 27.8308 22.8087 27.8273 19.6384L27.8169 13.872L24.2603 17.0666C22.3045 18.824 20.7072 20.2717 20.7106 20.2857ZM18.212 22.2553C17.9197 22.2762 17.7735 22.2031 17.335 21.8169L17.3282 21.8109C17.1328 21.6394 16.966 21.4931 16.9522 21.4863C16.9348 21.4793 16.6669 21.6603 16.3467 21.8934C16.1513 22.0373 15.5078 22.5033 14.6896 23.0959C14.182 23.4635 13.6071 23.8798 13.0302 24.2981L10.2845 26.2817L14.2204 26.2922C16.385 26.2957 19.9381 26.2957 22.1166 26.2922L26.0768 26.2817L23.1188 24.145C22.5236 23.7142 21.9451 23.296 21.4411 22.9316C20.5691 22.3011 19.9198 21.8317 19.7919 21.7368L19.4265 21.4689L19.0646 21.7821C18.64 22.1509 18.4939 22.231 18.212 22.2553Z" fill="#D4F0FA"/>
</svg>
